<?xml version="1.0" encoding="UTF-8" standalone="no"?>
<!DOCTYPE svg PUBLIC "-//W3C//DTD SVG 1.1//EN" "http://www.w3.org/Graphics/SVG/1.1/DTD/svg11.dtd">
<svg width="100%" height="100%" viewBox="0 0 48 73" version="1.1" xmlns="http://www.w3.org/2000/svg" xmlns:xlink="http://www.w3.org/1999/xlink" xml:space="preserve" xmlns:serif="http://www.serif.com/" style="fill-rule:evenodd;clip-rule:evenodd;stroke-linecap:round;stroke-miterlimit:2;">
    <g transform="matrix(1,0,0,1,-1.184,-1.184)">
        <g transform="matrix(1,0,0,-1,-135.336,28.6993)">
            <g id="_0" serif:id="0">
                <path id="LWPOLYLINE" d="M180.189,-38.283C180.701,-38.283 181.191,-38.486 181.553,-38.848C181.914,-39.209 182.117,-39.7 182.117,-40.211L182.117,-43.122L138.756,-43.122L138.756,-40.211C138.756,-39.146 139.619,-38.283 140.684,-38.283L180.189,-38.283Z"/>
                <path id="ARC" d="M173.636,-25.913C177.095,-25.913 179.899,-28.718 179.899,-32.177"/>
                <path id="LINE" d="M173.636,-25.913L147.238,-25.913"/>
                <path id="ARC1" serif:id="ARC" d="M140.974,-32.177C140.974,-28.718 143.778,-25.913 147.238,-25.913"/>
                <path id="LINE1" serif:id="LINE" d="M140.974,-32.177L140.974,-38.283"/>
                <path id="LINE2" serif:id="LINE" d="M179.899,-38.283L179.899,-32.177"/>
                <path id="ARC2" serif:id="ARC" d="M171.605,-20.737C172.92,-20.737 173.985,-21.803 173.985,-23.117"/>
                <path id="LINE3" serif:id="LINE" d="M171.605,-20.737L149.268,-20.737"/>
                <path id="ARC3" serif:id="ARC" d="M146.888,-23.117C146.888,-21.803 147.954,-20.737 149.268,-20.737"/>
                <path id="LINE4" serif:id="LINE" d="M146.888,-23.117L146.888,-25.923"/>
                <path id="LINE5" serif:id="LINE" d="M173.985,-25.923L173.985,-23.117"/>
                <path id="LINE6" serif:id="LINE" d="M170.595,-20.737L169.026,2.487"/>
                <path id="LINE7" serif:id="LINE" d="M151.847,2.487L150.279,-20.737"/>
                <path id="LWPOLYLINE1" serif:id="LWPOLYLINE" d="M168.755,7.712C170.342,7.712 171.629,6.425 171.629,4.838L171.629,2.487L149.245,2.487L149.245,4.838C149.245,6.425 150.531,7.712 152.118,7.712L168.755,7.712Z"/>
                <path id="ARC4" serif:id="ARC" d="M151.291,7.59C148.868,11.01 148.555,15.496 150.48,19.218C152.405,22.941 156.246,25.279 160.437,25.279C164.628,25.279 168.468,22.941 170.393,19.218C172.318,15.496 172.005,11.01 169.582,7.59"/>
            </g>
        </g>
    </g>
</svg>
